<svg width="40" height="40" viewBox="0 0 40 40" fill="none" xmlns="http://www.w3.org/2000/svg">
<g clip-path="url(#clip0_128_1429)">
<mask id="mask0_128_1429" style="mask-type:alpha" maskUnits="userSpaceOnUse" x="0" y="0" width="40" height="40">
<path d="M40 0H0V40H40V0Z" fill="white"/>
</mask>
<g mask="url(#mask0_128_1429)">
<path d="M15 0H10V5H15V0Z" fill="#FFAD08"/>
<path d="M25 0H20V5H25V0Z" fill="#EDD75A"/>
<path d="M35 0H30V5H35V0Z" fill="#73B06F"/>
<path d="M10 0H5V5H10V0Z" fill="#EDD75A"/>
<path d="M20 0H15V5H20V0Z" fill="#0C8F8F"/>
<path d="M30 0H25V5H30V0Z" fill="#FFAD08"/>
<path d="M40 0H35V5H40V0Z" fill="#405059"/>
<path d="M5 5H0V10H5V5Z" fill="#FFAD08"/>
<path d="M5 10H0V15H5V10Z" fill="#0C8F8F"/>
<path d="M5 15H0V20H5V15Z" fill="#0C8F8F"/>
<path d="M5 20H0V25H5V20Z" fill="#405059"/>
<path d="M5 25H0V30H5V25Z" fill="#FFAD08"/>
<path d="M5 30H0V35H5V30Z" fill="#FFAD08"/>
<path d="M5 35H0V40H5V35Z" fill="#EDD75A"/>
<path d="M15 5H10V10H15V5Z" fill="#0C8F8F"/>
<path d="M15 10H10V15H15V10Z" fill="#0C8F8F"/>
<path d="M15 15H10V20H15V15Z" fill="#73B06F"/>
<path d="M15 20H10V25H15V20Z" fill="#73B06F"/>
<path d="M15 25H10V30H15V25Z" fill="#EDD75A"/>
<path d="M15 30H10V35H15V30Z" fill="#0C8F8F"/>
<path d="M15 35H10V40H15V35Z" fill="#EDD75A"/>
<path d="M25 5H20V10H25V5Z" fill="#405059"/>
<path d="M25 10H20V15H25V10Z" fill="#EDD75A"/>
<path d="M25 15H20V20H25V15Z" fill="#FFAD08"/>
<path d="M25 20H20V25H25V20Z" fill="#0C8F8F"/>
<path d="M25 25H20V30H25V25Z" fill="#0C8F8F"/>
<path d="M25 30H20V35H25V30Z" fill="#0C8F8F"/>
<path d="M25 35H20V40H25V35Z" fill="#FFAD08"/>
<path d="M35 5H30V10H35V5Z" fill="#EDD75A"/>
<path d="M35 10H30V15H35V10Z" fill="#0C8F8F"/>
<path d="M35 15H30V20H35V15Z" fill="#405059"/>
<path d="M35 20H30V25H35V20Z" fill="#0C8F8F"/>
<path d="M35 25H30V30H35V25Z" fill="#FFAD08"/>
<path d="M35 30H30V35H35V30Z" fill="#73B06F"/>
<path d="M35 35H30V40H35V35Z" fill="#0C8F8F"/>
<path d="M10 5H5V10H10V5Z" fill="#73B06F"/>
<path d="M10 10H5V15H10V10Z" fill="#EDD75A"/>
<path d="M10 15H5V20H10V15Z" fill="#EDD75A"/>
<path d="M10 20H5V25H10V20Z" fill="#EDD75A"/>
<path d="M10 25H5V30H10V25Z" fill="#0C8F8F"/>
<path d="M10 30H5V35H10V30Z" fill="#EDD75A"/>
<path d="M10 35H5V40H10V35Z" fill="#EDD75A"/>
<path d="M20 5H15V10H20V5Z" fill="#EDD75A"/>
<path d="M20 10H15V15H20V10Z" fill="#405059"/>
<path d="M20 15H15V20H20V15Z" fill="#0C8F8F"/>
<path d="M20 20H15V25H20V20Z" fill="#EDD75A"/>
<path d="M20 25H15V30H20V25Z" fill="#EDD75A"/>
<path d="M20 30H15V35H20V30Z" fill="#405059"/>
<path d="M20 35H15V40H20V35Z" fill="#EDD75A"/>
<path d="M30 5H25V10H30V5Z" fill="#0C8F8F"/>
<path d="M30 10H25V15H30V10Z" fill="#EDD75A"/>
<path d="M30 15H25V20H30V15Z" fill="#0C8F8F"/>
<path d="M30 20H25V25H30V20Z" fill="#405059"/>
<path d="M30 25H25V30H30V25Z" fill="#FFAD08"/>
<path d="M30 30H25V35H30V30Z" fill="#0C8F8F"/>
<path d="M30 35H25V40H30V35Z" fill="#0C8F8F"/>
<path d="M40 5H35V10H40V5Z" fill="#FFAD08"/>
<path d="M40 10H35V15H40V10Z" fill="#EDD75A"/>
<path d="M40 15H35V20H40V15Z" fill="#405059"/>
<path d="M40 20H35V25H40V20Z" fill="#0C8F8F"/>
<path d="M40 25H35V30H40V25Z" fill="#FFAD08"/>
<path d="M40 30H35V35H40V30Z" fill="#405059"/>
<path d="M40 35H35V40H40V35Z" fill="#0C8F8F"/>
</g>
</g>
<defs>
<clipPath id="clip0_128_1429">
<rect width="40" height="40" rx="8" fill="white"/>
</clipPath>
</defs>
</svg>
