<svg width="40" height="40" viewBox="0 0 40 40" fill="none" xmlns="http://www.w3.org/2000/svg">
<g clip-path="url(#clip0_128_1521)">
<mask id="mask0_128_1521" style="mask-type:luminance" maskUnits="userSpaceOnUse" x="0" y="0" width="40" height="40">
<path d="M40 0H0V40H40V0Z" fill="white"/>
</mask>
<g mask="url(#mask0_128_1521)">
<path d="M40 0H0V40H40V0Z" fill="#405059"/>
<path d="M29.5335 10.4863C20.5973 3.99378 8.08993 5.97475 1.59743 14.9109C-4.89506 23.8471 -2.91409 36.3545 6.02207 42.847C14.9582 49.3394 27.4656 47.3585 33.9581 38.4223C40.4506 29.4862 38.4696 16.9788 29.5335 10.4863Z" fill="#EDD75A"/>
<path d="M12.1365 27.191C12.021 28.29 12.4923 29.4052 13.4468 30.2912C14.4013 31.1772 15.7607 31.7615 17.2261 31.9155C18.6914 32.0695 20.1427 31.7807 21.2605 31.1125C22.3784 30.4442 23.0712 29.4514 23.1868 28.3524" fill="black"/>
<path d="M14.2586 22.9451C14.3228 22.3348 14.0037 21.801 13.546 21.7529C13.0883 21.7048 12.6652 22.1606 12.6011 22.7709C12.5369 23.3811 12.856 23.9149 13.3137 23.963C13.7714 24.0111 14.1945 23.5554 14.2586 22.9451Z" fill="black"/>
<path d="M23.0988 23.8742C23.163 23.2639 22.8439 22.7302 22.3862 22.6821C21.9285 22.634 21.5054 23.0897 21.4413 23.7C21.3771 24.3103 21.6962 24.844 22.1539 24.8921C22.6116 24.9402 23.0347 24.4845 23.0988 23.8742Z" fill="black"/>
</g>
</g>
<defs>
<clipPath id="clip0_128_1521">
<rect width="40" height="40" rx="8" fill="white"/>
</clipPath>
</defs>
</svg>
