<svg width="40" height="40" viewBox="0 0 40 40" fill="none" xmlns="http://www.w3.org/2000/svg">
<mask id="mask0_128_1561" style="mask-type:luminance" maskUnits="userSpaceOnUse" x="0" y="0" width="40" height="40">
<path d="M40 0H0V40H40V0Z" fill="white"/>
</mask>
<g mask="url(#mask0_128_1561)">
<path d="M0 0H40V20H0V0Z" fill="#EDD75A"/>
<path d="M0 20H40V40H0V20Z" fill="#73B06F"/>
<path d="M36.8889 20C36.8889 15.5208 35.1095 11.225 31.9422 8.05772C28.775 4.89044 24.4792 3.11108 20 3.11108C15.5208 3.11108 11.225 4.89044 8.05775 8.05772C4.89047 11.225 3.11111 15.5208 3.11111 20H36.8889Z" fill="#73B06F"/>
<path d="M36.8889 20C36.8889 24.4792 35.1095 28.775 31.9422 31.9422C28.775 35.1095 24.4792 36.8889 20 36.8889C15.5208 36.8889 11.225 35.1095 8.05775 31.9422C4.89047 28.775 3.11111 24.4792 3.11111 20H36.8889Z" fill="#0C8F8F"/>
<path d="M34.2222 20C34.2222 16.228 32.7238 12.6105 30.0566 9.94336C27.3894 7.27618 23.772 5.77777 20 5.77777C16.228 5.77777 12.6106 7.27618 9.94337 9.94336C7.27619 12.6105 5.77778 16.228 5.77778 20H34.2222Z" fill="#0C8F8F"/>
<path d="M34.2222 20C34.2222 23.772 32.7238 27.3894 30.0566 30.0566C27.3894 32.7238 23.772 34.2222 20 34.2222C16.228 34.2222 12.6106 32.7238 9.94337 30.0566C7.27619 27.3894 5.77778 23.772 5.77778 20H34.2222Z" fill="#405059"/>
<path d="M31.5556 20C31.5556 16.9353 30.3381 13.9961 28.171 11.829C26.0039 9.66191 23.0647 8.44446 20 8.44446C16.9353 8.44446 13.9961 9.66191 11.829 11.829C9.6619 13.9961 8.44444 16.9353 8.44444 20H31.5556Z" fill="#405059"/>
<path d="M31.5556 20C31.5556 23.0647 30.3381 26.0039 28.171 28.171C26.0039 30.3381 23.0647 31.5556 20 31.5556C16.9353 31.5556 13.9961 30.3381 11.829 28.171C9.6619 26.0039 8.44444 23.0647 8.44444 20H31.5556Z" fill="#EDD75A"/>
<path d="M20 30.2222C25.6456 30.2222 30.2222 25.6456 30.2222 20C30.2222 14.3544 25.6456 9.77777 20 9.77777C14.3544 9.77777 9.77778 14.3544 9.77778 20C9.77778 25.6456 14.3544 30.2222 20 30.2222Z" fill="#FFAD08"/>
</g>
</svg>
